<svg width="80" height="80" viewBox="0 0 80 80" fill="none" xmlns="http://www.w3.org/2000/svg">
<mask id="mask0" mask-type="alpha" maskUnits="userSpaceOnUse" x="0" y="0" width="81" height="81">
<path d="M40.0548 80.1095C62.1765 80.1095 80.1096 62.1764 80.1096 40.0547C80.1096 17.9331 62.1765 -9.15527e-05 40.0548 -9.15527e-05C17.9331 -9.15527e-05 0 17.9331 0 40.0547C0 62.1764 17.9331 80.1095 40.0548 80.1095Z" fill="#E3EAF2"/>
</mask>
<g mask="url(#mask0)">
<path d="M40.0548 80.1095C62.1765 80.1095 80.1096 62.1764 80.1096 40.0547C80.1096 17.9331 62.1765 -9.15527e-05 40.0548 -9.15527e-05C17.9331 -9.15527e-05 0 17.9331 0 40.0547C0 62.1764 17.9331 80.1095 40.0548 80.1095Z" fill="#E3EAF2"/>
<path d="M38.8701 67.7446C30.4906 68.0902 29.6458 61.4662 29.682 58.5171C32.5845 57.6196 35.6081 57.1751 38.6462 57.1993C41.6421 57.1831 44.6244 57.6043 47.4987 58.4497C47.7011 61.211 47.2163 67.4005 38.8701 67.7446Z" fill="#DC6060"/>
<path d="M29.6819 58.5171C29.6458 61.4663 30.4905 68.0902 38.8701 67.7446C47.2163 67.4005 47.701 61.211 47.4986 58.4497C66.62 64.1559 71.3773 87.4858 71.3773 87.4858H8.6228C8.6228 87.4858 11.2716 64.3402 29.6819 58.5171Z" fill="#B65656"/>
<path d="M56.1232 19.6716C56.1232 19.6716 62.2295 25.9468 56.1232 32.2679C50.0171 38.5889 20.2642 31.9547 20.2642 31.9547C20.2642 31.9547 15.8342 23.2635 22.9582 17.0974C30.0821 10.9313 46.6646 12.847 46.8442 12.847C47.0239 12.847 56.1232 19.6716 56.1232 19.6716Z" fill="#663232"/>
<path d="M57.9159 39.5059C60.6374 39.5059 62.8436 37.2997 62.8436 34.5783C62.8436 31.8568 60.6374 29.6506 57.9159 29.6506C55.1945 29.6506 52.9883 31.8568 52.9883 34.5783C52.9883 37.2997 55.1945 39.5059 57.9159 39.5059Z" fill="#FCBCA3"/>
<path d="M21.3266 39.5059C24.0481 39.5059 26.2543 37.2997 26.2543 34.5783C26.2543 31.8568 24.0481 29.6506 21.3266 29.6506C18.6051 29.6506 16.3989 31.8568 16.3989 34.5783C16.3989 37.2997 18.6051 39.5059 21.3266 39.5059Z" fill="#FCBCA3"/>
<path d="M56.0887 29.9985C56.2306 32.0067 56.1479 34.0245 55.8419 36.0143C55.2693 41.1847 52.7977 45.6859 48.1061 48.1875C43.3996 50.6973 36.9913 51.5872 31.9835 49.526C30.0923 48.7896 28.3711 47.6754 26.925 46.2516C25.4788 44.8277 24.338 43.124 23.5723 41.2446C21.8232 36.8719 21.8046 31.2802 22.0406 26.5588C22.9151 9.0685 37.1576 9.32689 37.1576 9.32689C37.1576 9.32689 56.1603 7.86256 56.0887 29.9985Z" fill="#FFECE3"/>
<path d="M43.5886 54.7181L44.2032 61.7599C44.2032 61.7599 43.9519 65.2792 38.254 65.9495C32.5561 66.6199 31.8857 60.6707 31.8857 60.6707L32.8125 48.4901C34.0777 50.2198 35.6893 51.6668 37.5446 52.7391C39.4 53.8114 41.4584 54.4854 43.5886 54.7181Z" fill="#FFECE3"/>
<path d="M33.2583 51.4455L34.0911 40.4994L42.638 41.6725L44.0344 57.6734C41.9041 57.4407 39.8457 56.7668 37.9904 55.6945C36.135 54.6222 34.5234 53.1751 33.2583 51.4455Z" fill="#FCBCA3"/>
<path d="M46.4502 29.2721C46.4502 30.2381 46.8417 31.0211 47.3247 31.0211C47.8078 31.0211 48.1992 30.2381 48.1992 29.2721C48.1992 28.3061 47.8077 27.5231 47.3247 27.5231C46.8418 27.5231 46.4502 28.3062 46.4502 29.2721Z" fill="#323C66"/>
<path d="M31.136 31.3175C31.619 31.3175 32.0105 30.5345 32.0105 29.5685C32.0105 28.6025 31.619 27.8195 31.136 27.8195C30.653 27.8195 30.2615 28.6025 30.2615 29.5685C30.2615 30.5345 30.653 31.3175 31.136 31.3175Z" fill="#323C66"/>
<path d="M49.8438 23.1918C50.2057 23.813 50.6892 24.3548 51.2653 24.7849C51.8414 25.215 52.4983 25.5245 53.1968 25.695C55.1623 26.1704 57.7416 26.1957 58.7749 23.5655C59.2975 22.2985 59.4928 20.9204 59.3426 19.5581C59.1925 18.1958 58.7018 16.8932 57.9159 15.7704C57.9159 15.7704 63.9014 10.8884 59.4267 7.03047C54.952 3.17254 52.0125 7.70211 52.0125 7.70211C51.8466 6.54229 51.293 5.47277 50.4418 4.66768C49.5906 3.86259 48.4919 3.36933 47.3247 3.26821C43.1762 2.94664 41.7828 7.03047 41.7828 7.03047C41.0229 5.85964 39.9286 4.9442 38.642 4.40294C37.3554 3.86168 35.9359 3.71958 34.5675 3.99507C29.7452 4.95948 30.6069 9.94302 30.6069 9.94302C29.3643 9.20736 27.8811 8.99312 26.481 9.34706C22.3797 10.2182 20.4479 14.8049 21.3266 19.4665C21.7459 21.9638 21.5335 24.5263 20.7088 26.9205C20.3562 27.9722 20.9068 28.7998 21.3266 28.718C22.4213 28.5043 22.5866 17.8649 26.7062 18.1505C26.9017 20.4966 27.9847 24.3338 31.171 23.4289C31.9336 23.1819 32.6027 22.708 33.0889 22.0707C33.9107 21.0615 34.3089 19.7732 35.2204 18.831C35.8217 18.2003 36.5292 17.6801 37.3104 17.2941C38.2215 16.8719 39.2141 16.6548 40.2182 16.6582C41.2223 16.6616 42.2134 16.8854 43.1216 17.3138C45.9282 18.512 48.2819 20.5701 49.8438 23.1918Z" fill="#663232"/>
<path d="M27.3107 46.6886C32.0105 50.715 41.2256 54.8453 51.404 46.6886C48.8602 43.6356 50.0256 39.639 52.9881 35.1853C45.4467 32.7173 33.8792 32.7445 26.2542 35.1853C29.4972 39.4061 30.6064 43.3417 27.3107 46.6886Z" fill="#A8B7F9"/>
<path d="M27.161 35.6052C24.8892 34.1594 22.991 32.1974 21.6211 29.8791L27.161 35.6052Z" fill="#A8B7F9"/>
<path d="M51.5835 35.9321C53.7081 34.3351 55.4284 32.2619 56.6059 29.8791L51.5835 35.9321Z" fill="#A8B7F9"/>
<path d="M43.9121 26.5718C44.1128 26.0337 44.4654 25.5654 44.927 25.2238C45.4015 24.8589 45.9671 24.6315 46.5621 24.5663C47.1696 24.4941 47.7843 24.6192 48.3153 24.923C48.5694 25.0648 48.8015 25.2428 49.0044 25.4513C49.195 25.6625 49.3572 25.8977 49.487 26.151C48.925 26.0066 48.4661 25.8217 47.9982 25.7538C47.5653 25.6609 47.12 25.6396 46.6801 25.6908C45.7189 25.8457 44.786 26.1426 43.9121 26.5718Z" fill="#323C66"/>
<path d="M34.2465 26.1509C33.4596 25.4883 32.4522 25.1461 31.4246 25.1925C30.9163 25.2186 30.4111 25.286 29.9137 25.394C29.6569 25.4677 29.3814 25.5082 29.1071 25.5731C28.8225 25.6486 28.5329 25.7041 28.2405 25.7394C28.4268 25.5021 28.6327 25.2808 28.8559 25.0779C29.0922 24.8908 29.34 24.7188 29.5978 24.5628C30.1491 24.2599 30.763 24.0886 31.3915 24.0623C32.0538 24.0318 32.7078 24.219 33.2537 24.5952C33.517 24.7725 33.7411 25.0021 33.9119 25.2698C34.0827 25.5374 34.1966 25.8374 34.2465 26.1509Z" fill="#323C66"/>
</g>
</svg>
