<svg width="81" height="81" viewBox="0 0 81 81" fill="none" xmlns="http://www.w3.org/2000/svg">
<mask id="mask0" mask-type="alpha" maskUnits="userSpaceOnUse" x="0" y="0" width="81" height="81">
<path d="M40.0548 80.1095C62.1765 80.1095 80.1096 62.1764 80.1096 40.0547C80.1096 17.933 62.1765 -9.15527e-05 40.0548 -9.15527e-05C17.9331 -9.15527e-05 0 17.933 0 40.0547C0 62.1764 17.9331 80.1095 40.0548 80.1095Z" fill="#E3EAF2"/>
</mask>
<g mask="url(#mask0)">
<path d="M40.0548 80.1095C62.1765 80.1095 80.1096 62.1764 80.1096 40.0547C80.1096 17.933 62.1765 -9.15527e-05 40.0548 -9.15527e-05C17.9331 -9.15527e-05 0 17.933 0 40.0547C0 62.1764 17.9331 80.1095 40.0548 80.1095Z" fill="#E3EAF2"/>
<path d="M71.3441 49.7739C72.7058 49.9813 72.5527 52.0031 72.3786 52.9934C72.2045 53.9837 65.7478 56.3399 65.1579 56.1661C64.5679 55.9924 62.7889 53.814 63.1535 53.1681C63.8413 51.9499 70.6065 49.6616 71.3441 49.7739Z" fill="#5161A9"/>
<path d="M79.6703 87.6981C90.5515 77.5651 76.6072 53.2794 73.5241 52.0516C70.4411 50.8237 64.4595 53.8223 63.3737 56.0975C62.2878 58.3725 70.8643 74.798 69.0562 74.7416C65.895 72.2371 60.2377 67.9044 54.5505 64.2241C49.7064 61.0894 43.3853 60.1989 41.7725 63.9197C40.1597 67.6406 42.1595 71.9582 48.5141 75.8788" fill="#A95151"/>
<path d="M48.9908 84.0479C49.0893 83.0299 49.2043 82.0118 49.3192 80.9937C49.5546 78.9302 49.8009 76.883 49.9815 74.9181C50.0801 73.8945 50.1567 72.8873 50.2004 71.9185C50.3408 69.9028 50.2546 67.8777 49.9432 65.8812C49.7753 64.8896 49.4656 63.9274 49.0236 63.024C48.7197 62.4089 48.3207 61.8455 47.8414 61.3546C42.7455 56.2149 20.8896 57.1618 15.5693 61.5844C15.5088 61.633 15.4521 61.6861 15.3996 61.7432C14.5756 62.6086 13.9335 63.6304 13.5112 64.7482C12.6659 66.817 12.0047 68.9563 11.5353 71.1413C11.2725 72.2689 11.0281 73.4548 10.8018 74.6991C10.457 76.5437 10.1505 78.4923 9.87131 80.4901C9.72352 81.5739 9.58486 82.6667 9.45532 83.7688" fill="#B65656"/>
<g style="mix-blend-mode:multiply" opacity="0.4">
<g style="mix-blend-mode:multiply" opacity="0.4">
<path d="M10.8018 74.6991C15.7847 75.5124 20.8105 76.0369 25.854 76.27C33.9217 76.713 42.0137 76.2596 49.9814 74.918C50.08 73.8945 50.1566 72.8873 50.2004 71.9185C42.2831 73.0365 34.2757 73.3793 26.2919 72.9421C21.3391 72.6629 16.4098 72.0613 11.5352 71.1413C11.2725 72.2688 11.028 73.4548 10.8018 74.6991Z" fill="#5669B6"/>
</g>
<g style="mix-blend-mode:multiply" opacity="0.4">
<path d="M13.5112 64.7482C18.0139 65.7488 22.5807 66.4347 27.1787 66.8007C34.7763 67.4077 42.4193 67.099 49.9432 65.8812C49.7753 64.8896 49.4656 63.9274 49.0236 63.024C41.9835 63.9539 34.8646 64.1356 27.7862 63.5659C23.6225 63.2247 19.4851 62.6159 15.3996 61.7432C14.5756 62.6086 13.9335 63.6304 13.5112 64.7482Z" fill="#5669B6"/>
</g>
</g>
<path d="M30.9849 60.9504C32.2695 61.8908 33.7645 62.5029 35.3397 62.7335C38.6774 63.3339 38.4713 61.721 38.4713 61.721L39.0179 57.8278L39.8154 52.1558L31.9526 51.0537L31.2851 55.8295L30.6713 60.1933C30.6526 60.3359 30.6717 60.481 30.7267 60.6138C30.7818 60.7467 30.8708 60.8628 30.9849 60.9504Z" fill="#8B9DEB"/>
<path opacity="0.4" d="M31.2849 55.8295C32.1117 56.2622 32.9753 56.6205 33.8655 56.9004C34.9901 57.2447 36.1387 57.5052 37.3018 57.6799C37.8679 57.783 38.4424 57.8325 39.0178 57.8278L39.8153 52.1558L31.9525 51.0537L31.2849 55.8295Z" fill="#5060A8"/>
<path d="M49.6305 18.0782C53.5103 12.7474 59.0554 19.206 56.4002 23.1137C60.807 26.5547 55.8777 31.7939 53.8726 31.9331C53.5153 29.7811 49.4026 22.6508 49.6305 18.0782Z" fill="#663232"/>
<path d="M54.86 34.8948C57.4172 47.6989 51.4301 57.2312 37.1836 56.0084C22.937 54.7855 19.8246 43.8411 17.7331 32.7391C15.6416 21.6372 22.7321 11.0432 34.6653 11.0002C48.4704 10.9505 53.6916 19.249 54.86 34.8948Z" fill="#FFECE3"/>
<g opacity="0.5">
<path opacity="0.5" d="M28.2868 33.4612C28.2868 33.4612 29.9675 35.8793 28.2878 35.9353C26.6081 35.9913 28.2868 33.4612 28.2868 33.4612Z" fill="white"/>
<path opacity="0.5" d="M26.4799 36.65C26.4799 36.65 28.7723 39.9481 26.4812 40.0245C24.1902 40.1009 26.4799 36.65 26.4799 36.65Z" fill="white"/>
</g>
<path d="M14.186 31.9503C15.7455 34.8384 18.9023 34.5867 21.0904 36.0025C22.4545 36.8852 22.8715 39.9239 23.578 39.4529C25.4596 38.1986 24.9852 31.9052 24.9852 31.9052C24.9852 31.9052 27.8381 31.2995 29.5798 29.8964C30.5239 29.1359 31.547 27.3214 31.1673 26.1165C31.0405 25.7035 30.8253 25.3231 30.5366 25.0018C31.8375 24.2446 32.8002 23.0193 33.228 21.5761C33.2476 21.5001 33.253 21.4222 33.2686 21.3455C34.6163 21.5276 35.9866 21.447 37.3038 21.1083C41.3359 20.0331 42.7696 17.4346 42.7696 17.4346C42.7696 17.4346 46.802 20.1464 50.4898 18.2767C50.4919 18.2884 50.4965 18.2995 50.5035 18.3092C50.5104 18.3188 50.5195 18.3268 50.53 18.3324C50.5405 18.3381 50.5521 18.3412 50.564 18.3417C50.5759 18.3422 50.5877 18.3399 50.5986 18.3351C51.3715 18.066 52.0914 17.6639 52.7259 17.147C53.4094 16.5643 53.9884 15.8692 54.438 15.0916C55.3401 13.535 55.8055 11.5901 55.2943 9.82415C54.811 8.15435 53.3076 6.69916 51.4877 6.73945C51.2433 6.74628 51.0008 6.78339 50.7655 6.84992C50.787 5.83484 50.5596 4.82993 50.1034 3.92292C49.0626 1.90745 46.7729 0.938158 44.5759 1.16666C42.2452 1.40901 40.3272 2.88791 39.0683 4.80781C38.2464 6.11787 37.6775 7.57042 37.3909 9.09016C37.2186 8.89782 37.0293 8.7214 36.8253 8.56307C36.2035 8.08927 35.4689 7.78568 34.694 7.68224C33.9191 7.5788 33.1306 7.67907 32.4063 7.97318C31.27 8.4579 30.3077 9.27633 29.6469 10.3201C26.4192 10.6437 22.8166 9.60139 20.1192 10.8124C11.3381 14.755 10.5479 25.2133 14.186 31.9503Z" fill="#663232"/>
<path d="M21.4983 42.6665C20.9099 44.366 18.1341 44.9772 15.8914 43.448C13.6486 41.9189 12.0175 37.2975 13.6826 34.7829C15.3476 32.2683 19.311 33.3871 20.8186 36.3799C21.957 38.6397 21.957 41.3412 21.4983 42.6665Z" fill="#FFECE3"/>
<g style="mix-blend-mode:multiply" opacity="0.45">
<path d="M15.5732 36.4593C15.5529 36.4384 15.5383 36.4126 15.5309 36.3845C15.5235 36.3563 15.5235 36.3267 15.531 36.2986C15.5384 36.2704 15.553 36.2447 15.5733 36.2238C15.5936 36.203 15.619 36.1878 15.6469 36.1796C16.1779 36.048 16.7691 36.3818 17.211 36.6481C17.7024 36.9412 18.1443 37.3103 18.5202 37.7417C19.3012 38.6184 19.737 39.7489 19.7466 40.923C19.7419 41.1399 19.4033 41.2029 19.3555 40.9759C19.1748 39.9388 18.7249 38.9674 18.0508 38.1588C17.9553 38.051 17.8469 37.9578 17.7437 37.8587C17.7019 37.9112 17.6523 37.9593 17.6099 38.0084C17.5337 38.0967 17.4549 38.1829 17.3797 38.2721C17.2292 38.4546 17.0928 38.6482 16.9716 38.8513C16.7209 39.2609 16.569 39.725 16.2874 40.1154C16.235 40.1879 16.0863 40.1991 16.069 40.0869C16.0314 39.5484 16.1855 39.0139 16.5039 38.578C16.6461 38.3499 16.808 38.1347 16.9877 37.9349C17.0723 37.8368 17.1641 37.7452 17.2624 37.6608C17.3077 37.6231 17.3529 37.5854 17.3997 37.5512C17.2393 37.4198 17.0707 37.2988 16.8949 37.1889C16.4288 36.995 15.9856 36.7503 15.5732 36.4593Z" fill="#A85050"/>
</g>
<path d="M31.2837 32.0689C31.3186 31.9365 31.3967 31.8196 31.5057 31.7368C31.6076 31.6608 31.7422 31.6021 31.7751 31.4794C31.8169 31.3238 31.6693 31.1908 31.5728 31.0618C31.4631 30.8971 31.4155 30.6989 31.4385 30.5023C31.4614 30.3058 31.5534 30.1238 31.6981 29.9888C32.0322 29.666 32.5545 29.7223 32.9671 29.5743C33.5205 29.3806 34.0539 29.134 34.56 28.8379C35.022 28.5668 35.4466 28.2367 35.8233 27.8558C36.0053 27.6689 36.2021 27.2094 36.4804 27.154C36.9971 27.0511 36.7544 27.7712 36.8528 28.0226C36.9362 28.1812 36.9967 28.3508 37.0325 28.5263C37.0334 28.7266 36.9771 28.9229 36.8703 29.0923C36.2988 30.1654 35.4609 31.0735 34.4371 31.7292C33.855 32.0988 33.2384 32.4111 32.596 32.6618C32.3704 32.7661 32.1226 32.8135 31.8744 32.8C31.7505 32.7915 31.6313 32.7495 31.5294 32.6787C31.4275 32.6078 31.3467 32.5107 31.2956 32.3975C31.2576 32.2919 31.2534 32.177 31.2837 32.0689Z" fill="#663232"/>
<path d="M52.9989 29.9419C52.9905 29.9708 52.9796 29.999 52.9665 30.0261C52.911 30.1265 52.8357 30.2146 52.7453 30.2852C52.6549 30.3559 52.5511 30.4074 52.4402 30.4369C51.6456 30.5946 50.8208 30.4647 50.1131 30.0704C49.2182 29.6241 48.4163 29.0116 47.7503 28.2656C47.51 28.0528 47.3539 27.7611 47.3101 27.4431C47.3369 27.2463 47.3469 27.0476 47.34 26.8491C47.3165 26.7346 47.254 26.6302 47.2366 26.5147C47.1446 25.9043 47.8174 26.3993 47.969 26.5137C48.2718 26.7415 48.5971 26.9377 48.9398 27.0994C49.4271 27.3297 49.9446 27.4894 50.4769 27.5738C51.0262 27.6608 51.6615 27.4739 52.1582 27.7931C52.2613 27.857 52.3479 27.9443 52.411 28.0479C52.4742 28.1514 52.5121 28.2684 52.5218 28.3893C52.5257 28.6232 52.2753 28.8524 52.383 29.0879C52.4627 29.2621 52.7001 29.2845 52.8515 29.4019C52.9263 29.4675 52.9802 29.5537 53.0064 29.6498C53.0326 29.7458 53.03 29.8474 52.9989 29.9419Z" fill="#663232"/>
<path d="M41.4149 47.3727C42.8203 48.4958 43.8116 47.0214 45.3425 47.0778C45.6248 47.0841 45.8759 47.1029 46.0954 47.128C47.2876 47.2346 47.6766 47.4041 48.2788 46.7704C48.9941 46.0175 47.7581 43.8341 44.9472 43.8654C43.8998 43.8723 42.8878 44.2452 42.0862 44.9195C41.12 45.754 40.7624 46.8519 41.4149 47.3727Z" fill="#A85050"/>
<path d="M41.4149 47.3727C42.8203 48.4958 43.8116 47.0214 45.3425 47.0778C45.6248 47.0841 45.8759 47.1029 46.0954 47.128C45.7915 46.4921 45.3238 45.9485 44.7402 45.5531C43.9558 45.0405 43.0176 44.8165 42.0862 44.9195C41.12 45.754 40.7624 46.8519 41.4149 47.3727Z" fill="#C06B6B"/>
<path d="M32.9683 38.2685C33.1772 38.0462 33.399 37.8364 33.6325 37.6402C34.1076 37.218 34.6479 36.8755 35.2324 36.6259C35.8048 36.3687 36.444 36.2997 37.0581 36.4287C37.3458 36.4854 37.6001 36.6518 37.7673 36.8927C37.9344 37.1335 38.0013 37.43 37.9537 37.7193C37.9098 37.9249 37.612 37.8657 37.6017 37.6717C37.5696 37.0694 36.8796 36.9347 36.3984 36.971C35.9079 37.0205 35.4342 37.1767 35.0104 37.4285C34.5857 37.6764 34.1907 37.9719 33.8331 38.3095C33.5132 38.7006 33.1127 39.0183 32.659 39.2409C32.6309 39.2481 32.6014 39.2479 32.5734 39.2403C32.5454 39.2326 32.5199 39.2178 32.4993 39.1973C32.4788 39.1767 32.464 39.1512 32.4563 39.1232C32.4487 39.0952 32.4485 39.0657 32.4557 39.0376C32.5568 38.741 32.7335 38.4759 32.9683 38.2685Z" fill="#663232"/>
<path d="M48.4642 36.7813C48.6197 36.5599 48.796 36.354 48.9906 36.1661C49.3929 35.763 49.8709 35.4432 50.3971 35.2253C50.6581 35.096 50.9474 35.0342 51.2384 35.0458C51.5295 35.0573 51.813 35.1418 52.0629 35.2914C52.2702 35.4299 52.4206 35.6384 52.4866 35.8788C52.5526 36.1193 52.5297 36.3754 52.4221 36.6003C52.4019 36.6415 52.3665 36.6733 52.3233 36.689C52.2801 36.7046 52.2325 36.7029 52.1906 36.6842C52.1486 36.6655 52.1156 36.6313 52.0984 36.5887C52.0812 36.5461 52.0812 36.4985 52.0983 36.4559C52.1379 36.2746 52.1039 36.085 52.0037 35.9288C51.9036 35.7726 51.7456 35.6625 51.5643 35.6227C51.1095 35.5543 50.6458 35.6619 50.2675 35.9235C49.9021 36.1302 49.5718 36.3933 49.2887 36.7032C49.147 36.8615 49.0158 37.0288 48.8959 37.2041C48.7868 37.3998 48.6292 37.5642 48.4381 37.6812C48.4128 37.691 48.3857 37.6948 48.3587 37.6926C48.3317 37.6903 48.3057 37.6819 48.2824 37.6681C48.2591 37.6542 48.2393 37.6353 48.2245 37.6127C48.2096 37.5901 48.2 37.5644 48.1965 37.5375C48.1893 37.4001 48.2092 37.2625 48.2551 37.1328C48.301 37.003 48.3721 36.8836 48.4642 36.7813Z" fill="#663232"/>
<g style="mix-blend-mode:multiply" opacity="0.15">
<path d="M39.1952 36.7431C39.1952 36.7431 40.5881 39.8821 37.6443 41.7236C34.2357 43.8559 31.3689 40.7716 31.3689 40.7716C31.3689 40.7716 38.3791 40.1189 39.1952 36.7431Z" fill="#A85050"/>
</g>
<g style="mix-blend-mode:multiply" opacity="0.15">
<path d="M47.8682 38.0052C47.8682 38.0052 48.5334 40.6709 51.005 41.34C53.4767 42.0092 53.3878 38.701 52.9529 37.8718C52.66 38.863 50.1246 39.6644 47.8682 38.0052Z" fill="#A85050"/>
</g>
<g style="mix-blend-mode:multiply" opacity="0.45">
<path d="M44.5995 31.8462C44.6054 31.827 44.6173 31.8101 44.6334 31.7982C44.6496 31.7862 44.6692 31.7798 44.6893 31.7798C44.7094 31.7798 44.729 31.7862 44.7451 31.7982C44.7613 31.8101 44.7732 31.827 44.7791 31.8462C44.9194 32.4684 44.9827 33.1054 44.9676 33.743C44.9955 34.4186 45.0046 35.0952 45.0213 35.7712C45.0524 37.0248 45.0816 38.2784 45.1088 39.5322C46.1802 39.3059 47.4006 39.2961 48.1223 40.2557C48.2612 40.4261 48.3585 40.6265 48.4065 40.841C48.4545 41.0556 48.4519 41.2784 48.3988 41.4917C48.3457 41.7051 48.2437 41.9031 48.1007 42.0702C47.9578 42.2372 47.7779 42.3687 47.5753 42.4541C47.4692 42.4913 47.3936 42.3174 47.4979 42.2705C48.3257 41.8985 48.2516 40.8158 47.6167 40.3003C46.861 39.6869 45.8107 39.8341 44.9406 40.0571C44.9053 40.0662 44.8683 40.0673 44.8325 40.06C44.7967 40.0528 44.7631 40.0376 44.734 40.0155C44.705 39.9933 44.6813 39.9649 44.6649 39.9323C44.6484 39.8997 44.6396 39.8638 44.639 39.8273C44.6035 38.4753 44.5711 37.1233 44.5416 35.7712C44.5264 35.0952 44.5042 34.4191 44.4995 33.743C44.4546 33.1091 44.4882 32.4719 44.5995 31.8462Z" fill="#5060A8"/>
</g>
<g style="mix-blend-mode:color" opacity="0.74">
<path d="M47.4979 42.2705C48.3257 41.8985 48.2516 40.8158 47.6167 40.3003C46.861 39.687 45.8108 39.8341 44.9407 40.0571C44.9053 40.0663 44.8684 40.0673 44.8326 40.06C44.7968 40.0528 44.7631 40.0376 44.734 40.0155C44.705 39.9933 44.6814 39.9649 44.6649 39.9323C44.6484 39.8997 44.6396 39.8638 44.639 39.8273C44.6036 38.4753 44.5711 37.1233 44.5416 35.7712C44.5265 35.0952 44.5043 34.4191 44.4995 33.743C44.4995 33.743 43.6606 38.7041 43.9755 40.6509C44.2904 42.5977 46.497 42.4873 47.4979 42.2705Z" fill="#C06B6B"/>
</g>
<path d="M48.7709 57.4472C47.3693 59.3321 51.0129 61.0899 49.4391 62.7727C41.3432 67.9443 22.743 64.4369 18.7893 59.3171C17.0168 57.439 17.6712 56.1405 20.7222 55.1032C22.0867 52.173 21.6619 50.7969 25.4472 51.5793C40.8575 57.6059 50.1815 52.2075 48.7709 57.4472Z" fill="#DC6060"/>
<path d="M26.2327 79.3327C26.1818 74.5419 25.6103 69.7599 25.7541 64.9708C25.862 61.3759 26.3946 57.7293 27.8047 54.3986C28.2711 53.297 28.7709 51.9561 30.0634 51.6747C31.4738 51.3675 33.3722 52.1524 34.7393 52.4396C35.5376 52.6073 36.3927 52.8067 36.9364 53.415C37.1993 53.7571 37.3781 54.1563 37.4583 54.5803C37.5385 55.0043 37.5179 55.4412 37.3981 55.8557C37.152 56.6808 36.8287 57.4808 36.4325 58.2452C35.0465 61.396 34.9368 64.9665 35.2832 68.3912C35.6296 71.8161 36.4068 75.1877 36.7166 78.616" fill="#DF6868"/>
<path d="M47.9134 74.9375C49.5476 73.8059 50.4885 74.3754 52.0036 74.4663C53.5188 74.5572 53.3996 73.4399 51.5214 72.7153C50.5593 72.3442 48.5776 72.3799 47.3761 72.7569C49.5921 71.5575 51.8059 73.0216 52.7466 72.4528C53.1566 72.2049 52.9185 71.3195 51.8496 70.8776C50.1025 70.1427 48.1799 69.9299 46.3145 70.265C48.1085 69.2148 50.0556 70.4619 51.062 70.2431C51.7507 70.0934 51.2539 69.4942 50.4275 69.018C48.7703 68.0741 46.827 67.7632 44.958 68.1429C42.6728 68.5575 40.4886 71.84 37.8914 75.6907C37.1259 76.8256 36.4256 77.3097 36.9507 79.0381C37.4757 80.7664 39.3199 82.4155 40.473 82.4948C41.9557 82.5968 44.3148 80.9445 46.1613 78.8412C48.0078 76.7378 49.603 76.376 51.1046 76.1906C52.5853 76.0079 52.6894 75.2629 51.9594 74.9674C51.2293 74.672 50.1173 74.599 47.9134 74.9375Z" fill="#FFECE3"/>
<path d="M43.6393 81.9141C44.0038 83.2424 42.0947 83.925 41.1192 84.1689C40.1438 84.4127 35.3646 79.4731 35.2833 78.8635C35.202 78.2538 36.4681 75.7426 37.2065 75.8128C38.5991 75.9455 43.4418 81.1945 43.6393 81.9141Z" fill="#A95151"/>
<path d="M23.6068 72.4517C24.4996 66.7514 22.7413 60.6148 18.6862 60.6552C14.631 60.6957 11.5005 64.2791 10.5044 71.6791" fill="#A95151"/>
<path d="M89.1178 56.7842C88.1105 55.4839 86.9115 54.3443 85.5617 53.4045C84.1088 52.3432 82.5622 51.4165 80.9411 50.636C80.4952 50.4218 80.0426 50.2218 79.5861 50.0309C79.3632 48.9561 79.2895 48.2078 79.2772 48.1834C79.2402 48.1093 86.6687 50.147 89.4104 51.1658C92.1521 52.1848 92.4299 53.7594 92.4299 53.7594C92.8791 55.7004 91.9585 57.0804 90.4753 57.829C90.3369 57.8994 90.1772 57.9154 90.0276 57.874C89.878 57.8326 89.7492 57.7368 89.6667 57.6053C89.4948 57.3245 89.3144 57.0491 89.1178 56.7842Z" fill="#A8B7F9"/>
<path d="M65.1733 43.236C62.3306 42.8715 59.4516 42.8938 56.6148 43.3024C55.2176 43.538 53.6106 44.1428 53.285 45.5219C52.958 46.9071 54.1245 48.1566 55.1917 49.0983C59.9064 53.2577 64.8756 57.5121 67.3799 63.2789C68.3773 65.5757 68.9442 68.0358 69.8522 70.3693C70.7603 72.7028 72.0864 74.9869 74.1813 76.3584C75.7328 77.3742 78.0032 77.7274 79.3181 76.4197C81.1975 74.5506 79.6664 71.1247 80.9775 68.8211C81.6932 67.5635 83.1606 66.8858 84.6004 66.742C86.0482 66.6777 87.4975 66.829 88.9007 67.1911C89.7418 67.4127 90.6171 67.4734 91.4807 67.3701C91.912 67.3126 92.3199 67.14 92.6615 66.8704C93.003 66.6008 93.2657 66.2443 93.422 65.8382C93.7815 64.6424 92.8551 63.4767 91.9968 62.5697C90.4633 60.949 88.9299 59.3284 87.3963 57.7077C86.4333 56.6899 85.3954 55.4297 85.6805 54.0578C85.9439 52.7903 87.3115 51.9999 88.6054 51.9587C90.0267 51.9134 91.1548 52.6865 92.457 53.8563C92.2898 52.711 90.1315 50.9862 89.2543 50.5258C87.4358 49.5713 85.5758 48.7025 83.6742 47.9192C79.8738 46.3532 75.9375 45.1398 71.915 44.2942C69.6874 43.826 67.4372 43.4728 65.1733 43.236Z" fill="#F7CACA"/>
<path d="M59.2803 47.5819C59.5362 46.6437 70.3135 50.4768 76.3218 53.754C82.33 57.0312 88.9936 62.7663 88.2289 63.5309C87.4642 64.2957 81.6612 56.7971 73.5908 53.9725C72.4984 53.5901 72.0614 54.3548 73.6454 55.6657C75.2293 56.9765 73.3723 56.7035 69.5489 53.8632C65.7255 51.023 59.1165 48.1828 59.2803 47.5819Z" fill="#F9A8A8"/>
<path d="M67.4258 48.8093C67.7436 47.5778 67.8961 46.3096 67.8793 45.038C67.9204 45.7387 67.9957 46.2691 67.9863 46.941C67.9759 47.6885 67.7588 48.9736 68.4 49.0038C69.0414 49.0339 69.7235 48.2343 70.1889 47.0741C70.5614 46.0985 70.7594 45.0651 70.7739 44.0209C70.792 43.6085 70.6597 43.2036 70.4018 42.8813C70.1438 42.5591 69.7776 42.3414 69.3713 42.2688C67.366 41.8099 65.3015 41.6665 63.252 41.8437C61.0377 42.0788 60.998 42.9602 60.5349 43.9893C59.9538 45.2808 61.1181 47.8399 62.1727 47.8879C63.2274 47.9359 62.0893 46.0241 62.8078 44.5337C62.2789 45.6376 63.2146 48.6458 64.4338 48.9769C65.076 49.1513 65.1132 48.4837 65.0899 48.1342C65.0204 47.0898 64.6327 46.0147 65.0762 44.9842C65.0451 45.843 65.2286 48.2174 65.8521 48.9353C65.9477 49.0596 66.0729 49.1581 66.2163 49.2217C66.3597 49.2853 66.5168 49.3121 66.6732 49.2996C66.8295 49.2871 66.9803 49.2357 67.1118 49.15C67.2432 49.0644 67.3512 48.9473 67.4258 48.8093Z" fill="#FFECE3"/>
</g>
</svg>
